<?xml version="1.0" encoding="UTF-8" standalone="no"?>
<!-- Created with Inkscape (http://www.inkscape.org/) -->

<svg
   width="29.049999mm"
   height="16.35mm"
   viewBox="0 0 29.049999 16.35"
   version="1.1"
   id="svg5"
   inkscape:version="1.1.1 (3bf5ae0d25, 2021-09-20)"
   sodipodi:docname="03-devices-dark.svg"
   xmlns:inkscape="http://www.inkscape.org/namespaces/inkscape"
   xmlns:sodipodi="http://sodipodi.sourceforge.net/DTD/sodipodi-0.dtd"
   xmlns="http://www.w3.org/2000/svg"
   xmlns:svg="http://www.w3.org/2000/svg">
  <sodipodi:namedview
     id="namedview7"
     pagecolor="#ffffff"
     bordercolor="#666666"
     borderopacity="1.0"
     inkscape:pageshadow="2"
     inkscape:pageopacity="0.0"
     inkscape:pagecheckerboard="0"
     inkscape:document-units="mm"
     showgrid="false"
     inkscape:zoom="3.7447846"
     inkscape:cx="81.313089"
     inkscape:cy="49.268522"
     inkscape:window-width="1600"
     inkscape:window-height="847"
     inkscape:window-x="-8"
     inkscape:window-y="-8"
     inkscape:window-maximized="1"
     inkscape:current-layer="g897" />
  <defs
     id="defs2" />
  <g
     inkscape:label="Layer 1"
     inkscape:groupmode="layer"
     id="layer1">
    <g
       style="display:none;fill:#000000"
       id="g836"
       transform="matrix(0.26458333,0,0,0.26458333,5,5)">
      <path
         d="M 0,0 H 24 V 24 H 0 Z"
         fill="none"
         id="path824" />
      <path
         d="M 21,3 H 3 C 1.9,3 1,3.9 1,5 v 12 c 0,1.1 0.9,2 2,2 h 5 v 2 h 8 v -2 h 5 c 1.1,0 1.99,-0.9 1.99,-2 L 23,5 C 23,3.9 22.1,3 21,3 Z m 0,14 H 3 V 5 h 18 z"
         id="path826"
         style="fill:#782121" />
    </g>
    <g
       style="display:inline;fill:#000000"
       id="g879"
       transform="matrix(0.26458333,0,0,0.26458333,5,5)">
      <path
         d="M 0,0 H 24 V 24 H 0 Z"
         fill="none"
         id="path875" />
      <path
         d="M 21,3 H 3 C 1.9,3 1,3.9 1,5 v 12 c 0,1.1 0.9,2 2,2 h 5 v 2 h 8 v -2 h 5 c 1.1,0 1.99,-0.9 1.99,-2 L 23,5 C 23,3.9 22.1,3 21,3 Z m 0,14 H 3 V 5 h 18 z"
         id="path877"
         style="fill:#de8787" />
    </g>
    <g
       style="display:none;fill:#000000"
       id="g859"
       transform="matrix(0.26458333,0,0,0.26458333,11.35,5)"
       inkscape:label="g859">
      <g
         id="g840">
        <rect
           fill="none"
           height="24"
           width="24"
           x="0"
           id="rect838"
           y="0" />
      </g>
      <g
         id="g846"
         style="display:inline;fill:#672178">
        <g
           id="g844"
           style="fill:#672178">
          <path
             d="m 20,18 c 1.1,0 2,-0.9 2,-2 V 6 C 22,4.9 21.1,4 20,4 H 4 C 2.9,4 2,4.9 2,6 v 10 c 0,1.1 0.9,2 2,2 H 0 v 2 H 24 V 18 Z M 4,6 H 20 V 16 H 4 Z"
             id="path842"
             style="fill:#672178" />
        </g>
      </g>
    </g>
    <g
       style="display:inline;fill:#000000"
       id="g891"
       transform="matrix(0.26458333,0,0,0.26458333,11.35,5)">
      <g
         id="g883">
        <rect
           fill="none"
           height="24"
           width="24"
           x="0"
           id="rect881"
           y="0" />
      </g>
      <g
         id="g889"
         style="fill:#cd87de">
        <g
           id="g887"
           style="fill:#cd87de">
          <path
             d="m 20,18 c 1.1,0 2,-0.9 2,-2 V 6 C 22,4.9 21.1,4 20,4 H 4 C 2.9,4 2,4.9 2,6 v 10 c 0,1.1 0.9,2 2,2 H 0 v 2 H 24 V 18 Z M 4,6 H 20 V 16 H 4 Z"
             id="path885"
             style="fill:#cd87de" />
        </g>
      </g>
    </g>
    <g
       style="display:none;fill:#000000"
       id="g873"
       transform="matrix(0.26458333,0,0,0.26458333,17.7,5)">
      <path
         d="M 0,0 H 24 V 24 H 0 Z"
         fill="none"
         id="path861" />
      <path
         d="M 17,1.01 7,1 C 5.9,1 5,1.9 5,3 v 18 c 0,1.1 0.9,2 2,2 h 10 c 1.1,0 2,-0.9 2,-2 V 3 C 19,1.9 18.1,1.01 17,1.01 Z M 17,19 H 7 V 5 h 10 z"
         id="path863"
         style="fill:#217844" />
    </g>
    <g
       style="display:inline;fill:#000000"
       id="g897"
       transform="matrix(0.26458333,0,0,0.26458333,17.7,5)">
      <path
         d="M 0,0 H 24 V 24 H 0 Z"
         fill="none"
         id="path893" />
      <path
         d="M 17,1.01 7,1 C 5.9,1 5,1.9 5,3 v 18 c 0,1.1 0.9,2 2,2 h 10 c 1.1,0 2,-0.9 2,-2 V 3 C 19,1.9 18.1,1.01 17,1.01 Z M 17,19 H 7 V 5 h 10 z"
         id="path895"
         style="fill:#87deaa" />
    </g>
  </g>
</svg>
